# xmcd
#
# Track frame offsets: 
#        150
#        11075
#        21075
#        32568
#        48561
#
# Disc length: 851 seconds
#
# Revision: 0
# Processed by: cddbd v1.5.2PL0 Copyright (c) Steve Scherf et al.
# Submitted via: ExactAudioCopy v0.99pb3
#
DISCID=35035105
DTITLE=Super Best Friends - Super Best Friends EP
DYEAR=2012
DGENRE=Indie
TTITLE0=No Logo is a Joke
TTITLE1=Karma Karma
TTITLE2=You Want It
TTITLE3=The Bleachers
TTITLE4=It's an Evolution
EXTD=
EXTT0=
EXTT1=
EXTT2=
EXTT3=
EXTT4=
PLAYORDER=
